<svg width="100%" height="100%" viewBox="0 0 5486 1820" version="1.1" 
    xmlns="http://www.w3.org/2000/svg" xmlns:xlink="http://www.w3.org/1999/xlink" xml:space="preserve" xmlns:serif="http://www.serif.com/" 
    style="fill-rule:evenodd;clip-rule:evenodd;stroke-linejoin:round;stroke-miterlimit:2;">
    <rect id="White" x="0" y="0" width="5485.699" height="1819.629" style="fill:none;"/>
    <g id="Capa-1" serif:id="Capa 1">
    </g>
    <g>
        <path d="M2133.971,791.077L2133.971,855.022L2021.505,855.022C2010.747,855.022 2000.43,850.748 1992.823,843.141C1985.216,835.534 1980.942,825.217 1980.942,814.459L1980.942,92.96L2100.598,92.96C2111.355,92.96 2121.673,97.234 2129.28,104.841C2136.887,112.448 2141.16,122.765 2141.16,133.523L2141.16,361.1C2154.177,346.742 2168.898,334.732 2185.323,325.071C2220.242,304.53 2260.981,294.259 2307.54,294.259C2359.577,294.259 2406.307,305.899 2447.731,329.179C2489.154,352.458 2522.02,385.323 2546.326,427.774C2570.633,470.225 2582.786,520.55 2582.786,578.749C2582.786,636.263 2570.633,686.245 2546.326,728.696C2522.02,771.147 2489.154,804.183 2447.731,827.805C2406.307,851.427 2359.577,863.238 2307.54,863.238C2258.927,863.238 2217.161,852.967 2182.242,832.427C2163.879,821.625 2147.789,807.842 2133.971,791.077ZM2279.81,731.777C2306.513,731.777 2330.306,725.615 2351.189,713.29C2372.072,700.966 2388.847,683.335 2401.514,660.398C2414.181,637.461 2420.514,610.244 2420.514,578.749C2420.514,546.568 2414.181,519.18 2401.514,496.586C2388.847,473.991 2372.072,456.531 2351.189,444.207C2330.306,431.882 2306.513,425.72 2279.81,425.72C2253.107,425.72 2229.143,431.882 2207.918,444.207C2186.692,456.531 2169.917,473.991 2157.593,496.586C2145.268,519.18 2139.106,546.568 2139.106,578.749C2139.106,610.244 2145.268,637.461 2157.593,660.398C2169.917,683.335 2186.692,700.966 2207.918,713.29C2229.143,725.615 2253.107,731.777 2279.81,731.777Z" style="fill:#f2f2f2;"/>
        <path d="M2845.987,374.96C2861.084,354.296 2880.256,337.495 2903.501,324.557C2939.789,304.359 2983.952,294.259 3035.989,294.259L3035.989,442.153C3029.142,441.468 3022.979,440.955 3017.502,440.612C3012.024,440.27 3006.204,440.099 3000.042,440.099C2956.222,440.099 2920.789,452.594 2893.744,477.585C2866.699,502.577 2853.176,541.433 2853.176,594.154L2853.176,814.459C2853.176,825.217 2848.902,835.534 2841.295,843.141C2833.688,850.748 2823.371,855.022 2812.613,855.022L2692.958,855.022L2692.958,302.476L2845.987,302.476L2845.987,374.96Z" style="fill:#f2f2f2;"/>
        <g>
            <path d="M3153.625,615.484L3054.062,851.453L3206.127,851.453L3224.09,808.76C3226.829,802.256 3226.867,794.927 3224.2,788.396L3153.625,615.484Z" style="fill:#f2f2f2;"/>
            <path d="M3496.792,851.454L3671.87,851.454L3455.939,322.585C3451.855,312.582 3442.121,306.043 3431.316,306.043L3274.178,306.043L3496.792,851.454Z" style="fill:#f2f2f2;"/>
        </g>
        <path d="M4466.324,652.706C4467.58,655.51 4468.911,658.245 4470.319,660.912C4483.328,685.56 4501.986,704.047 4526.292,716.372C4550.599,728.696 4579.527,734.858 4613.077,734.858C4642.518,734.858 4668.194,730.408 4690.105,721.507C4702.084,716.64 4713.655,710.443 4724.815,702.915C4741.304,691.882 4763.372,694.5 4776.822,709.085C4802.162,736.141 4836.971,773.886 4836.971,773.886C4811.637,802.643 4779.799,824.724 4741.456,840.129C4703.114,855.535 4658.951,863.238 4608.969,863.238C4545.977,863.238 4490.688,850.913 4443.102,826.264C4395.516,801.616 4358.714,767.895 4332.696,725.101C4306.677,682.308 4293.668,633.524 4293.668,578.749C4293.668,523.289 4306.506,474.162 4332.182,431.369C4357.858,388.576 4392.949,355.026 4437.453,330.719C4481.958,306.413 4532.626,294.259 4589.455,294.259C4641.491,294.259 4689.077,305.214 4732.213,327.125C4775.349,349.035 4809.925,380.873 4835.944,422.639C4861.962,464.405 4874.971,514.73 4874.971,573.613L4466.324,652.706ZM4450.912,561.872L4720.262,510.194C4717.419,500.249 4713.529,490.92 4708.591,482.207C4696.951,461.666 4681.032,445.405 4660.834,433.423C4640.636,421.441 4616.843,415.45 4589.455,415.45C4562.067,415.45 4537.932,421.441 4517.049,433.423C4496.166,445.405 4479.904,462.865 4468.265,485.802C4457.537,506.942 4451.753,532.298 4450.912,561.872Z" style="fill:#f2f2f2;"/>
        <path d="M5182.513,863.238C5135.269,863.238 5089.909,857.589 5046.431,846.292C5002.953,834.994 4968.547,820.787 4943.213,803.67C4943.213,803.67 4959.297,769.029 4973.811,737.767C4985.74,712.078 5015.876,700.457 5041.964,711.486C5055.78,717.45 5070.648,722.608 5086.485,727.155C5121.062,737.083 5155.125,742.047 5188.675,742.047C5225.649,742.047 5251.838,737.597 5267.244,728.696C5282.649,719.795 5290.352,707.471 5290.352,691.723C5290.352,678.714 5284.361,668.957 5272.379,662.452C5260.397,655.948 5244.478,650.984 5224.621,647.56C5204.765,644.137 5183.027,640.713 5159.405,637.29C5135.783,633.866 5111.99,629.245 5088.026,623.425C5064.061,617.605 5042.151,608.875 5022.295,597.235C5002.439,585.596 4986.52,569.848 4974.538,549.992C4962.556,530.136 4956.565,504.46 4956.565,472.964C4956.565,438.045 4966.664,407.233 4986.862,380.531C5007.061,353.828 5036.331,332.773 5074.674,317.368C5113.017,301.962 5158.891,294.259 5212.297,294.259C5249.955,294.259 5288.298,298.368 5327.325,306.584C5366.353,314.8 5398.875,326.782 5424.894,342.53C5424.894,342.53 5408.525,377.47 5393.912,408.664C5382.265,433.522 5353.453,445.234 5327.766,435.552C5315.57,430.542 5303.235,426.841 5290.865,424.18C5263.82,418.36 5237.631,415.45 5212.297,415.45C5176.693,415.45 5150.675,420.243 5134.242,429.828C5117.81,439.414 5109.593,451.738 5109.593,466.802C5109.593,480.495 5115.584,490.766 5127.567,497.613C5139.549,504.46 5155.468,509.937 5175.324,514.045C5195.18,518.153 5216.919,521.748 5240.541,524.829C5264.162,527.91 5287.955,532.532 5311.92,538.694C5335.884,544.856 5357.623,553.586 5377.136,564.884C5396.65,576.181 5412.569,591.587 5424.894,611.1C5437.218,630.614 5443.38,656.119 5443.38,687.615C5443.38,721.849 5433.11,752.147 5412.569,778.507C5392.028,804.868 5362.416,825.58 5323.731,840.643C5285.045,855.706 5237.973,863.238 5182.513,863.238Z" style="fill:#f2f2f2;"/>
        <path d="M3974.856,676.263C3974.856,676.263 4077.246,433.929 4116.987,339.873C4126.385,317.63 4148.185,303.174 4172.332,303.174C4217.469,303.174 4284.832,303.174 4284.832,303.174L4053.79,851.574L3889.68,851.574L3659.243,303.174L3810.544,303.174C3818.183,303.174 3825.06,307.803 3827.937,314.879C3853.652,378.131 3974.856,676.263 3974.856,676.263Z" style="fill:#f2f2f2;"/>
    </g>
    <g>
        <path d="M2319.504,1666.003C2255.782,1666.003 2198.164,1652.157 2146.65,1624.464C2095.136,1596.772 2054.64,1558.36 2025.161,1509.228C1995.682,1460.097 1980.942,1404.563 1980.942,1342.628C1980.942,1280.692 1995.682,1225.158 2025.161,1176.027C2054.64,1126.895 2095.136,1088.483 2146.65,1060.791C2198.164,1033.099 2256.079,1019.252 2320.397,1019.252C2374.591,1019.252 2423.573,1028.781 2467.345,1047.838C2511.117,1066.895 2547.891,1094.29 2577.668,1130.022L2484.765,1215.779C2442.482,1166.945 2390.075,1142.528 2327.544,1142.528C2288.834,1142.528 2254.293,1151.014 2223.921,1167.987C2193.548,1184.96 2169.876,1208.632 2152.903,1239.005C2135.93,1269.377 2127.444,1303.918 2127.444,1342.628C2127.444,1381.337 2135.93,1415.878 2152.903,1446.251C2169.876,1476.623 2193.548,1500.295 2223.921,1517.268C2254.293,1534.241 2288.834,1542.727 2327.544,1542.727C2377.864,1542.727 2421.628,1526.722 2458.836,1494.713C2474.879,1480.98 2498.66,1481.426 2514.177,1495.749C2541.4,1520.862 2577.668,1554.34 2577.668,1554.34C2547.891,1590.668 2510.968,1618.36 2466.899,1637.417C2422.829,1656.474 2373.697,1666.003 2319.504,1666.003Z" style="fill:#f2f2f2;fill-rule:nonzero;"/>
        <path d="M2957.321,1167.54C3016.875,1167.54 3064.964,1185.407 3101.59,1221.139C3138.215,1256.871 3156.528,1309.873 3156.528,1380.146L3156.528,1655.283L3017.173,1655.283L3017.173,1401.586C3017.173,1363.471 3008.835,1335.035 2992.16,1316.275C2975.485,1297.516 2951.366,1288.136 2919.803,1288.136C2884.666,1288.136 2856.676,1299.005 2835.832,1320.742C2814.989,1342.479 2804.567,1374.787 2804.567,1417.665L2804.567,1613.617C2804.567,1624.667 2800.177,1635.265 2792.363,1643.079C2784.549,1650.893 2773.951,1655.283 2762.9,1655.283L2665.212,1655.283L2665.212,1034.12C2665.212,1023.069 2669.601,1012.471 2677.416,1004.657C2685.23,996.843 2695.828,992.453 2706.878,992.453L2804.567,992.453L2804.567,1224.712C2823.028,1206.25 2845.361,1192.106 2871.564,1182.28C2897.768,1172.454 2926.354,1167.54 2957.321,1167.54Z" style="fill:#f2f2f2;fill-rule:nonzero;"/>
        <path d="M3775.586,1174.687L3775.586,1655.283L3684.15,1655.283C3661.139,1655.283 3642.484,1636.628 3642.484,1613.617L3642.484,1599.899C3607.943,1641.586 3557.918,1662.43 3492.409,1662.43C3447.148,1662.43 3406.205,1652.306 3369.58,1632.057C3332.955,1611.809 3304.22,1582.926 3283.376,1545.407C3262.533,1507.888 3252.111,1464.414 3252.111,1414.985C3252.111,1365.556 3262.533,1322.082 3283.376,1284.563C3304.22,1247.044 3332.955,1218.161 3369.58,1197.913C3406.205,1177.665 3447.148,1167.54 3492.409,1167.54C3553.749,1167.54 3601.69,1186.895 3636.231,1225.605L3636.231,1174.687L3775.586,1174.687ZM3516.528,1548.087C3551.665,1548.087 3580.846,1536.027 3604.072,1511.908C3627.298,1487.789 3638.911,1455.481 3638.911,1414.985C3638.911,1374.489 3627.298,1342.181 3604.072,1318.062C3580.846,1293.943 3551.665,1281.883 3516.528,1281.883C3480.796,1281.883 3451.317,1293.943 3428.091,1318.062C3404.866,1342.181 3393.253,1374.489 3393.253,1414.985C3393.253,1455.481 3404.866,1487.789 3428.091,1511.908C3451.317,1536.027 3480.796,1548.087 3516.528,1548.087Z" style="fill:#f2f2f2;fill-rule:nonzero;"/>
        <path d="M4214.197,1632.057C4200.5,1642.182 4183.676,1649.775 4163.725,1654.837C4143.775,1659.899 4122.782,1662.43 4100.748,1662.43C4043.576,1662.43 3999.358,1647.839 3968.092,1618.658C3936.827,1589.477 3921.194,1546.598 3921.194,1490.022L3921.194,1292.603L3847.05,1292.603L3847.05,1185.407L3921.194,1185.407L3921.194,1068.384L4018.882,1068.384C4029.933,1068.384 4040.531,1072.774 4048.345,1080.588C4056.159,1088.402 4060.549,1099 4060.549,1110.051L4060.549,1185.407L4180.252,1185.407L4180.252,1292.603L4060.549,1292.603L4060.549,1488.236C4060.549,1508.484 4065.76,1524.117 4076.182,1535.134C4086.604,1546.152 4101.343,1551.66 4120.4,1551.66C4128.794,1551.66 4136.712,1550.796 4144.155,1549.068C4164.373,1544.459 4184.899,1555.434 4192.296,1574.806C4202.623,1601.745 4214.197,1632.057 4214.197,1632.057Z" style="fill:#f2f2f2;fill-rule:nonzero;"/>
        <path d="M4545.612,1216.354C4545.612,1205.303 4550.002,1194.705 4557.816,1186.891C4565.63,1179.077 4576.228,1174.687 4587.279,1174.687L4684.967,1174.687L4684.967,1613.617C4684.967,1624.667 4680.577,1635.265 4672.763,1643.079C4664.949,1650.893 4654.351,1655.283 4643.3,1655.283L4545.612,1655.283L4545.612,1216.354ZM4615.29,1107.689C4589.682,1107.689 4568.838,1100.245 4552.758,1085.357C4536.679,1070.468 4528.639,1052.007 4528.639,1029.972C4528.639,1007.937 4536.679,989.476 4552.758,974.587C4568.838,959.699 4589.682,952.255 4615.29,952.255C4640.898,952.255 4661.741,959.401 4677.821,973.694C4693.9,987.987 4701.94,1005.853 4701.94,1027.292C4701.94,1050.518 4693.9,1069.724 4677.821,1084.91C4661.741,1100.096 4640.898,1107.689 4615.29,1107.689Z" style="fill:#f2f2f2;fill-rule:nonzero;"/>
        <path d="M5236.134,1521.288L4973.675,1521.288C4956.811,1521.288 4941.61,1531.453 4935.168,1547.038C4919.08,1585.96 4890.426,1655.283 4890.426,1655.283L4742.138,1655.283L5020.849,1029.972L5136.765,1029.972C5153.198,1029.972 5168.095,1039.63 5174.803,1054.631C5226.614,1170.503 5443.38,1655.283 5443.38,1655.283L5291.519,1655.283L5236.134,1521.288ZM5190.576,1411.412L5091.419,1172.007L4992.263,1411.412L5190.576,1411.412Z" style="fill:#f2f2f2;fill-rule:nonzero;"/>
    </g>
    <g>
        <path d="M601.491,1047.609C562.993,1035.884 541.257,995.109 552.982,956.612C564.707,918.114 605.482,896.378 643.98,908.103C851.501,971.306 1059.022,969.058 1266.543,902.129C1304.844,889.777 1345.969,910.844 1358.321,949.145C1370.674,987.446 1349.607,1028.57 1311.306,1040.923C1074.701,1117.232 838.096,1119.67 601.491,1047.609Z" style="fill:#f2f2f2;"/>
        <path d="M776.098,1425.981C645.841,1424.869 599.662,1666.003 599.662,1666.003C280.299,1576.363 -79.252,692.471 275.511,244.268C437.449,39.678 1428.502,94.795 1641.867,227.855C1844.281,354.086 1819,1155.153 1629.558,1315.195C1444.339,1471.669 970.868,1427.645 776.098,1425.981ZM525.62,1392.62C531.953,1383.322 538.621,1374.36 545.632,1365.874C605.206,1293.765 684.347,1250.191 777.593,1250.987C889.994,1251.947 1098.904,1268.429 1286.523,1248.269C1377.743,1238.468 1464.653,1225.418 1516.623,1181.514C1542.036,1160.045 1553.536,1113.881 1567.887,1061.304C1601.843,936.907 1614.581,775.289 1604.925,630.699C1599.922,555.784 1589.116,485.604 1570.389,429.111C1563.475,408.253 1547.861,379.857 1544.223,373.358C1504.217,350.783 1432.525,335.346 1346.343,320.489C1179.442,291.717 964.858,277.854 772.948,286.605C672.253,291.196 578.088,301.801 501.999,320.939C465.578,330.099 416.296,353.292 410.088,356.247C238.087,577.76 292.392,926.302 405.787,1185.848C440.191,1264.593 481.016,1335.635 525.62,1392.62Z" style="fill:#f2f2f2;"/>
    </g>
</svg>
