<svg width="100%" height="100%" viewBox="0 0 5062 1820" version="1.1" xmlns="http://www.w3.org/2000/svg" xmlns:xlink="http://www.w3.org/1999/xlink" xml:space="preserve" xmlns:serif="http://www.serif.com/" style="fill-rule:evenodd;clip-rule:evenodd;stroke-linejoin:round;stroke-miterlimit:2;">
    <g transform="matrix(1,0,0,1,-5694.1875,0)">
        <g id="Página-2" serif:id="Página 2" transform="matrix(4.166667,0,0,4.166667,5694.1875,0)">
            <rect x="0" y="0" width="1214.76" height="436.711" style="fill:none;"/>
            <g id="Capa-1" serif:id="Capa 1">
                <g transform="matrix(1,0,0,1,162.1739,187.5276)">
                    <path d="M0,-143.619C-14.258,-143.523 -32.942,-142.076 -46.986,-139.615C-54.506,-138.296 -62.732,-138.077 -65.746,-130.427C-77.538,-91.835 -72.651,-41.095 -42.248,-12.111C-40.73,-12.06 -39.326,-22.341 -38.549,-24.363C-36.322,-30.154 -29.793,-36.041 -23.813,-37.577C-14.138,-40.063 6.402,-37.436 17.679,-38.005C29.308,-38.591 51.469,-40.9 62.268,-44.32C65.213,-45.252 67.263,-46.073 68.554,-49.014C76.927,-68.097 75.845,-108.274 69.754,-128.104C66.593,-138.395 59.344,-138.064 49.456,-139.746C34.589,-142.275 15.057,-143.721 0,-143.619M-71.342,12.515C-106.479,-23.203 -115.459,-80.346 -105.314,-128.074C-96.469,-169.689 -77.109,-174.002 -38.114,-178.657C-5.207,-182.585 41.838,-182.128 73.832,-173.111C126.441,-161.09 127.164,-16.097 71.052,-7.586C47.339,-1.183 20.281,-0.5 -4.192,0.016C-6.011,0.636 -6.877,7.661 -7.945,10.238C-21.785,38.966 -52.817,34.039 -71.342,12.515" style="fill-rule:nonzero;"/>
                </g>
                <g transform="matrix(1,0,0,1,283.4272,244.7342)">
                    <path d="M0,178.96C-1.794,176.764 -3.851,170.572 -4.194,167.675C-9.337,124.187 -2.836,48.661 -57.002,35.815C-87.835,28.503 -163.905,27.005 -192.736,39.221C-234.926,57.098 -230.462,129.371 -234.976,167.675C-237.694,190.743 -269.137,191.009 -272.555,170.544C-274.667,157.901 -270.445,129.723 -268.659,116.019C-263.028,72.839 -256.984,31.504 -215.573,8.394C-178.942,-12.049 -89.73,-10.349 -49.016,-1.121C14.288,13.227 24.06,68.191 30.501,123.991C31.335,139.231 37.496,163.51 30.837,176.977C24.579,187.492 7.641,188.31 0,178.96" style="fill-rule:nonzero;"/>
                </g>
                <g transform="matrix(0.49664,-0.867956,-0.867956,-0.49664,189.657548,295.663551)">
                    <path d="M-26.034,-23.277C-40.491,-20.087 -52.306,9.45 -58.543,21.266C-66.164,41.226 -39.399,56.21 -26.034,39.872C-21.37,34.169 -7.012,9.077 -4.459,2.166C0.542,-11.373 -11.615,-26.255 -26.034,-23.277" style="fill-rule:nonzero;"/>
                </g>
            </g>
            <g transform="matrix(0.742825,0,0,0.838911,-5663.29711,-11.869192)">
                <g transform="matrix(0.9361,0,0,0.828884,7410.12965,-139.435342)">
                    <path d="M818.584,458.326L818.584,480.397L779.767,480.397C776.054,480.397 772.493,478.922 769.867,476.296C767.242,473.67 765.767,470.11 765.767,466.397L765.767,217.375L807.065,217.375C810.778,217.375 814.339,218.85 816.965,221.475C819.59,224.101 821.065,227.662 821.065,231.375L821.065,309.922C825.558,304.966 830.639,300.821 836.308,297.486C848.36,290.397 862.421,286.852 878.49,286.852C896.451,286.852 912.579,290.869 926.877,298.904C941.174,306.939 952.517,318.282 960.906,332.934C969.296,347.586 973.49,364.955 973.49,385.042C973.49,404.893 969.296,422.144 960.906,436.796C952.517,451.448 941.174,462.85 926.877,471.003C912.579,479.156 896.451,483.232 878.49,483.232C861.712,483.232 847.296,479.688 835.244,472.598C828.907,468.87 823.353,464.113 818.584,458.326ZM868.92,437.859C878.136,437.859 886.348,435.732 893.556,431.479C900.763,427.225 906.553,421.14 910.925,413.223C915.297,405.306 917.483,395.913 917.483,385.042C917.483,373.935 915.297,364.483 910.925,356.684C906.553,348.886 900.763,342.859 893.556,338.606C886.348,334.352 878.136,332.225 868.92,332.225C859.703,332.225 851.432,334.352 844.106,338.606C836.78,342.859 830.991,348.886 826.737,356.684C822.483,364.483 820.356,373.935 820.356,385.042C820.356,395.913 822.483,405.306 826.737,413.223C830.991,421.14 836.78,427.225 844.106,431.479C851.432,435.732 859.703,437.859 868.92,437.859Z"/>
                </g>
                <g transform="matrix(0.9361,0,0,0.828884,7411.21538,-139.435342)">
                    <path d="M1063.173,314.706C1068.384,307.574 1075.001,301.775 1083.024,297.309C1095.549,290.338 1110.791,286.852 1128.751,286.852L1128.751,337.897C1126.388,337.66 1124.261,337.483 1122.371,337.365C1120.48,337.247 1118.471,337.188 1116.345,337.188C1101.22,337.188 1088.991,341.501 1079.656,350.126C1070.322,358.752 1065.654,372.163 1065.654,390.359L1065.654,466.397C1065.654,470.11 1064.179,473.671 1061.554,476.296C1058.928,478.922 1055.367,480.397 1051.654,480.397L1010.356,480.397L1010.356,289.688L1063.173,289.688L1063.173,314.706Z"/>
                </g>
                <g transform="matrix(1,0,0,1,17.249548,0)">
                    <g transform="matrix(-1.227507,0,-0,-1.086914,8488.59764,257.736414)">
                        <path d="M0,62.109L26.206,0L-13.819,0L-18.547,11.237C-19.268,12.949 -19.278,14.878 -18.576,16.597L0,62.109Z"/>
                    </g>
                    <g transform="matrix(-1.227507,0,-0,-1.086914,8599.471837,101.702793)">
                        <path d="M0,-143.557L-46.082,-143.557L10.753,-4.354C11.828,-1.721 14.39,0 17.234,0L58.594,0L0,-143.557Z"/>
                    </g>
                </g>
                <g transform="matrix(0.9361,0,0,0.828884,7379.217838,-139.435342)">
                    <path d="M1656.607,410.568C1657.04,411.536 1657.5,412.48 1657.985,413.4C1662.475,421.908 1668.915,428.288 1677.304,432.542C1685.694,436.796 1695.678,438.923 1707.258,438.923C1717.419,438.923 1726.281,437.387 1733.843,434.315C1737.978,432.635 1741.972,430.496 1745.824,427.898C1751.515,424.09 1759.131,424.993 1763.773,430.027C1772.52,439.366 1784.534,452.393 1784.534,452.393C1775.79,462.318 1764.801,469.939 1751.567,475.257C1738.333,480.574 1723.091,483.232 1705.84,483.232C1684.098,483.232 1665.016,478.979 1648.592,470.471C1632.168,461.964 1619.466,450.325 1610.485,435.555C1601.505,420.785 1597.015,403.948 1597.015,385.042C1597.015,365.9 1601.446,348.945 1610.308,334.175C1619.17,319.405 1631.281,307.825 1646.642,299.436C1662.003,291.047 1679.49,286.852 1699.105,286.852C1717.065,286.852 1733.489,290.633 1748.377,298.195C1763.265,305.758 1775.199,316.746 1784.179,331.162C1793.159,345.577 1797.649,362.946 1797.649,383.27L1656.607,410.568ZM1651.287,379.217L1744.252,361.381C1743.271,357.948 1741.928,354.729 1740.224,351.721C1736.207,344.632 1730.712,339.019 1723.741,334.884C1716.769,330.748 1708.557,328.68 1699.105,328.68C1689.652,328.68 1681.322,330.748 1674.114,334.884C1666.906,339.019 1661.294,345.045 1657.276,352.962C1653.574,360.258 1651.577,369.01 1651.287,379.217Z"/>
                </g>
                <g transform="matrix(0.9361,0,0,0.828884,7383.679498,-139.435342)">
                    <path d="M1899.03,483.232C1882.724,483.232 1867.068,481.283 1852.061,477.383C1837.055,473.484 1825.18,468.581 1816.437,462.673C1816.437,462.673 1821.988,450.717 1826.997,439.927C1831.114,431.06 1841.516,427.049 1850.52,430.856C1855.288,432.914 1860.42,434.695 1865.886,436.264C1877.82,439.691 1889.577,441.404 1901.157,441.404C1913.918,441.404 1922.957,439.868 1928.274,436.796C1933.591,433.724 1936.25,429.47 1936.25,424.035C1936.25,419.545 1934.182,416.177 1930.046,413.932C1925.911,411.687 1920.416,409.974 1913.563,408.792C1906.71,407.611 1899.207,406.429 1891.054,405.247C1882.901,404.066 1874.689,402.471 1866.418,400.462C1858.147,398.453 1850.584,395.44 1843.731,391.423C1836.878,387.405 1831.384,381.97 1827.248,375.117C1823.113,368.264 1821.045,359.402 1821.045,348.531C1821.045,336.479 1824.53,325.845 1831.502,316.628C1838.473,307.412 1848.576,300.145 1861.81,294.828C1875.043,289.511 1890.877,286.852 1909.31,286.852C1922.307,286.852 1935.541,288.27 1949.011,291.106C1962.481,293.942 1973.706,298.077 1982.686,303.513C1982.686,303.513 1977.037,315.572 1971.993,326.338C1967.973,334.918 1958.029,338.96 1949.163,335.619C1944.954,333.889 1940.696,332.612 1936.427,331.693C1927.092,329.685 1918.053,328.68 1909.31,328.68C1897.021,328.68 1888.041,330.335 1882.369,333.643C1876.698,336.952 1873.862,341.205 1873.862,346.404C1873.862,351.131 1875.93,354.675 1880.065,357.039C1884.201,359.402 1889.695,361.292 1896.548,362.71C1903.402,364.128 1910.905,365.369 1919.058,366.432C1927.211,367.496 1935.423,369.091 1943.694,371.218C1951.965,373.344 1959.468,376.358 1966.203,380.257C1972.938,384.156 1978.433,389.473 1982.686,396.208C1986.94,402.943 1989.067,411.746 1989.067,422.617C1989.067,434.433 1985.522,444.89 1978.433,453.988C1971.343,463.086 1961.122,470.235 1947.77,475.434C1934.418,480.633 1918.171,483.232 1899.03,483.232Z"/>
                </g>
                <g transform="matrix(0.940684,0,0,0.832942,4741.620569,-8883.627728)">
                    <path d="M4283.646,10914.615C4283.646,10914.615 4318.814,10831.382 4332.463,10799.078C4335.691,10791.438 4343.179,10786.473 4351.472,10786.473C4366.975,10786.473 4390.112,10786.473 4390.112,10786.473L4310.757,10974.828L4254.392,10974.828L4175.245,10786.473L4227.211,10786.473C4229.835,10786.473 4232.197,10788.063 4233.185,10790.493C4242.017,10812.218 4283.646,10914.615 4283.646,10914.615Z"/>
                </g>
            </g>
            <g transform="matrix(4.287849,0,0,4.287849,-35868.269923,-9660.084948)">
                <path d="M8471.181,2346.147C8467.614,2346.147 8464.389,2345.372 8461.506,2343.822C8458.623,2342.272 8456.356,2340.122 8454.706,2337.372C8453.056,2334.622 8452.231,2331.514 8452.231,2328.047C8452.231,2324.581 8453.056,2321.472 8454.706,2318.722C8456.356,2315.972 8458.623,2313.822 8461.506,2312.272C8464.389,2310.722 8467.631,2309.947 8471.231,2309.947C8474.264,2309.947 8477.006,2310.481 8479.456,2311.547C8481.906,2312.614 8483.964,2314.147 8485.631,2316.147L8480.431,2320.947C8478.064,2318.214 8475.131,2316.847 8471.631,2316.847C8469.464,2316.847 8467.531,2317.322 8465.831,2318.272C8464.131,2319.222 8462.806,2320.547 8461.856,2322.247C8460.906,2323.947 8460.431,2325.881 8460.431,2328.047C8460.431,2330.214 8460.906,2332.147 8461.856,2333.847C8462.806,2335.547 8464.131,2336.872 8465.831,2337.822C8467.531,2338.772 8469.464,2339.247 8471.631,2339.247C8474.447,2339.247 8476.897,2338.352 8478.98,2336.56C8479.878,2335.791 8481.209,2335.816 8482.077,2336.618C8483.601,2338.024 8485.631,2339.897 8485.631,2339.897C8483.964,2341.931 8481.898,2343.481 8479.431,2344.547C8476.964,2345.614 8474.214,2346.147 8471.181,2346.147Z" style="fill-rule:nonzero;"/>
                <path d="M8506.881,2318.247C8510.214,2318.247 8512.906,2319.247 8514.956,2321.247C8517.006,2323.247 8518.031,2326.214 8518.031,2330.147L8518.031,2345.547L8510.231,2345.547L8510.231,2331.347C8510.231,2329.214 8509.764,2327.622 8508.831,2326.572C8507.898,2325.522 8506.548,2324.997 8504.781,2324.997C8502.814,2324.997 8501.248,2325.606 8500.081,2326.822C8498.914,2328.039 8498.331,2329.847 8498.331,2332.247L8498.331,2343.215C8498.331,2343.834 8498.085,2344.427 8497.648,2344.864C8497.21,2345.302 8496.617,2345.547 8495.999,2345.547L8490.531,2345.547L8490.531,2310.78C8490.531,2310.161 8490.777,2309.568 8491.214,2309.131C8491.651,2308.693 8492.245,2308.447 8492.863,2308.447L8498.331,2308.447L8498.331,2321.447C8499.364,2320.414 8500.614,2319.622 8502.081,2319.072C8503.548,2318.522 8505.148,2318.247 8506.881,2318.247Z" style="fill-rule:nonzero;"/>
                <path d="M8552.681,2318.647L8552.681,2345.547L8547.563,2345.547C8546.275,2345.547 8545.231,2344.503 8545.231,2343.215L8545.231,2342.447C8543.298,2344.781 8540.498,2345.947 8536.831,2345.947C8534.298,2345.947 8532.006,2345.381 8529.956,2344.247C8527.906,2343.114 8526.298,2341.497 8525.131,2339.397C8523.964,2337.297 8523.381,2334.864 8523.381,2332.097C8523.381,2329.331 8523.964,2326.897 8525.131,2324.797C8526.298,2322.697 8527.906,2321.081 8529.956,2319.947C8532.006,2318.814 8534.298,2318.247 8536.831,2318.247C8540.264,2318.247 8542.948,2319.331 8544.881,2321.497L8544.881,2318.647L8552.681,2318.647ZM8538.181,2339.547C8540.148,2339.547 8541.781,2338.872 8543.081,2337.522C8544.381,2336.172 8545.031,2334.364 8545.031,2332.097C8545.031,2329.831 8544.381,2328.022 8543.081,2326.672C8541.781,2325.322 8540.148,2324.647 8538.181,2324.647C8536.181,2324.647 8534.531,2325.322 8533.231,2326.672C8531.931,2328.022 8531.281,2329.831 8531.281,2332.097C8531.281,2334.364 8531.931,2336.172 8533.231,2337.522C8534.531,2338.872 8536.181,2339.547 8538.181,2339.547Z" style="fill-rule:nonzero;"/>
                <path d="M8577.231,2344.247C8576.464,2344.814 8575.523,2345.239 8574.406,2345.522C8573.289,2345.806 8572.114,2345.947 8570.881,2345.947C8567.681,2345.947 8565.206,2345.131 8563.456,2343.497C8561.706,2341.864 8560.831,2339.464 8560.831,2336.297L8560.831,2325.247L8556.681,2325.247L8556.681,2319.247L8560.831,2319.247L8560.831,2312.697L8566.299,2312.697C8566.917,2312.697 8567.51,2312.943 8567.948,2313.381C8568.385,2313.818 8568.631,2314.411 8568.631,2315.03L8568.631,2319.247L8575.331,2319.247L8575.331,2325.247L8568.631,2325.247L8568.631,2336.197C8568.631,2337.331 8568.923,2338.206 8569.506,2338.822C8570.089,2339.439 8570.914,2339.747 8571.981,2339.747C8572.451,2339.747 8572.894,2339.699 8573.31,2339.602C8574.442,2339.344 8575.591,2339.959 8576.005,2341.043C8576.583,2342.551 8577.231,2344.247 8577.231,2344.247Z" style="fill-rule:nonzero;"/>
                <path d="M8595.781,2320.98C8595.781,2320.361 8596.027,2319.768 8596.464,2319.331C8596.901,2318.893 8597.495,2318.647 8598.113,2318.647L8603.581,2318.647L8603.581,2343.215C8603.581,2343.834 8603.335,2344.427 8602.898,2344.864C8602.46,2345.302 8601.867,2345.547 8601.249,2345.547L8595.781,2345.547L8595.781,2320.98ZM8599.681,2314.897C8598.248,2314.897 8597.081,2314.481 8596.181,2313.647C8595.281,2312.814 8594.831,2311.781 8594.831,2310.547C8594.831,2309.314 8595.281,2308.281 8596.181,2307.447C8597.081,2306.614 8598.248,2306.197 8599.681,2306.197C8601.114,2306.197 8602.281,2306.597 8603.181,2307.397C8604.081,2308.197 8604.531,2309.197 8604.531,2310.397C8604.531,2311.697 8604.081,2312.772 8603.181,2313.622C8602.281,2314.472 8601.114,2314.897 8599.681,2314.897Z" style="fill-rule:nonzero;"/>
                <path d="M8634.431,2338.047L8619.74,2338.047C8618.797,2338.047 8617.946,2338.616 8617.585,2339.489C8616.685,2341.667 8615.081,2345.547 8615.081,2345.547L8606.781,2345.547L8622.381,2310.547L8628.869,2310.547C8629.789,2310.547 8630.623,2311.088 8630.998,2311.928C8633.898,2318.413 8646.031,2345.547 8646.031,2345.547L8637.531,2345.547L8634.431,2338.047ZM8631.881,2331.897L8626.331,2318.497L8620.781,2331.897L8631.881,2331.897Z" style="fill-rule:nonzero;"/>
            </g>
        </g>
    </g>
</svg>
