<?xml version="1.0" encoding="UTF-8" standalone="no"?>
<!DOCTYPE svg PUBLIC "-//W3C//DTD SVG 1.1//EN" "http://www.w3.org/Graphics/SVG/1.1/DTD/svg11.dtd">
<svg width="100%" height="100%" viewBox="0 0 1624 1877" version="1.1" xmlns="http://www.w3.org/2000/svg" xmlns:xlink="http://www.w3.org/1999/xlink" xml:space="preserve" xmlns:serif="http://www.serif.com/" style="fill-rule:evenodd;clip-rule:evenodd;stroke-linejoin:round;stroke-miterlimit:2;">
    <g transform="matrix(1,0,0,1,-13152.456162,-2119.869508)">
        <g id="Enviar" transform="matrix(3.529117,0,0,4.079728,13152.456162,2119.869508)">
            <rect x="0" y="0" width="460" height="460" style="fill:none;"/>
            <g id="Capa-1" serif:id="Capa 1">
            </g>
            <g transform="matrix(0,-0.879494,1.016712,0,3.071003,456.913628)">
                <path d="M37.324,196.867C28.757,165.507 6.289,74.866 3.941,65.395C-6.514,23.214 32.528,-10.064 72.392,6.761C76.34,8.427 481.665,176.543 483.548,177.397C522.507,195.066 522.819,242.997 492.157,264.011C486.61,267.812 486.338,267.42 115.446,421.373C58.441,445.035 49.853,451.846 22.123,433.999C19.041,431.61 -0.897,416.158 2.285,389.479C3.062,382.963 28.587,283.19 37.506,249.531L210.054,249.531C224.588,249.531 236.387,237.732 236.387,223.199C236.387,208.666 224.588,196.867 210.054,196.867L37.324,196.867Z" style="fill-opacity:1;"/>
            </g>
        </g>
    </g>
</svg>
