<?xml version="1.0" encoding="UTF-8" standalone="no"?>
<!DOCTYPE svg PUBLIC "-//W3C//DTD SVG 1.1//EN" "http://www.w3.org/Graphics/SVG/1.1/DTD/svg11.dtd">
<svg width="100%" height="100%" viewBox="0 0 1624 1877" version="1.1" xmlns="http://www.w3.org/2000/svg" xmlns:xlink="http://www.w3.org/1999/xlink" xml:space="preserve" xmlns:serif="http://www.serif.com/" style="fill-rule:evenodd;clip-rule:evenodd;stroke-linejoin:round;stroke-miterlimit:2;">
    <g transform="matrix(1,0,0,1,-11388.375,-2119.869508)">
        <g id="Enviar" transform="matrix(3.529117,0,0,4.079728,11388.375,2119.869508)">
            <rect x="0" y="0" width="460" height="460" style="fill:none;"/>
            <g transform="matrix(0,-0.849289,0.981795,0,10.83012,449.266745)">
                <g id="Capa-1" serif:id="Capa 1">
                    <path d="M17.242,441.583C16.991,441.422 16.751,441.25 16.521,441.068C12.92,438.274 -7.661,421.96 -6.908,393.246C-6.557,379.887 28.625,249.957 34.624,224.088C34.259,222.293 33.275,217.539 32.148,212.799C24.493,180.606 3.532,101.215 -4.812,67.566C-17.135,17.877 28.891,-21.389 75.899,-1.549C279.986,84.588 280.822,82.323 484.992,168.199C534.508,189.026 533.145,246.854 497.255,271.451C491.683,275.269 491.483,275.05 118.904,429.703C95.734,439.321 80.425,446.17 68.605,449.801C48.171,456.077 36.726,454.123 17.242,441.583ZM78.594,199.124C98.272,199.321 172.756,198.443 207.507,199.025C218.975,199.217 226.705,199.87 228.226,200.381C235.422,202.798 240.946,209.019 243.197,216.318C245.495,223.769 244.369,232.1 239.09,238.28C235.014,243.052 228.218,246.898 217.573,246.984C190.1,247.208 102.719,246.57 78.265,247.154C75.683,257.295 68.171,286.776 50.557,355.812C46.563,371.467 43.78,381.459 42.31,388.382C40.962,394.728 40.758,397.034 43.04,400.23C45.058,402.497 46.578,404.111 48.648,404.573C51.127,405.128 53.93,404.235 57.961,402.856C65.986,400.112 77.091,394.985 94.025,388.036C95.896,387.268 466.783,233.384 467.724,232.968C472.36,230.917 475.073,227.039 475.089,222.953C475.105,218.819 472.265,214.939 467.033,212.736C430.704,197.437 94.5,58.137 62.099,44.712C61.311,44.385 58.607,42.808 55.014,41.913C51.448,41.026 46.552,40.943 42.809,45.956C40.943,48.456 40.977,50.063 42.09,55.94C43.989,65.961 48.849,83.374 57.459,117.218C70.419,168.165 76.378,190.815 78.594,199.124Z" style="fill-opacity:1;"/>
                </g>
            </g>
        </g>
    </g>
</svg>
