<?xml version="1.0" encoding="UTF-8" standalone="no"?>
<svg width="24" height="24" viewBox="0 0 1624 1877" fill="none" xmlns="http://www.w3.org/2000/svg" style="fill-rule:evenodd;clip-rule:evenodd;stroke-linejoin:round;stroke-miterlimit:2;">
    <path fill="currentColor" d="M739.689,1726.451c-1.782,-3.514 -2.029,-4.12 1.463,-6.23c10.367,-6.265 9.715,-6.927 20.97,-16.033c179.081,-144.9 182.61,-341.306 186.777,-345.651c3.906,-4.073 276.065,-1.103 378.067,-1.939c68.687,-0.563 62.789,-68.866 30.034,-86.247c-12.963,-6.879 -13.823,-6.039 -325.353,-6.039c-78.785,0 -83.541,2.003 -84.667,-7.748c-16.638,-144.044 -66.31,-176.948 -44.481,-176.885c33.957,0.097 320.241,0.913 424.466,0.059c71.23,-0.584 64.753,-76.499 21.278,-89.851c-16.098,-4.944 -304.083,-1.541 -504.248,-2.435c-15.807,-0.071 -13.342,-5.527 -33.654,-26.22c-193.283,-196.907 -401.893,-150.344 -411.887,-157.393c-4.201,-2.963 -1,-410.054 -1.944,-506.895c-1.093,-112.174 91.323,-139.642 112.385,-143.5c26.482,-4.851 684.177,-2.737 685.844,-1.135c3.098,2.977 0.535,327.126 1.45,353.768c0.534,15.551 11.606,34.759 28.879,40.994c24.946,9.004 363.585,-0.614 369.58,5.148c3.087,2.967 0.601,947.466 1.38,1027.514c1.048,107.764 -84.682,138.477 -112.373,143.495c-33.582,6.086 -596.164,0.122 -743.968,3.224l-112.862,-935.627c19.727,14.066 21.716,12.052 161.798,12.052c553.237,0 553.587,0.446 563.328,-3.561c46.69,-19.208 31.722,-87.212 -15.683,-88.438c-6.209,-0.161 -655.141,-0.034 -664.542,-0.074c-6.014,-0.025 -34.096,-4.717 -51.825,20.209c-19.94,28.035 3.815,56.134 6.924,59.812l112.862,935.627Z"/>
    <path fill="currentColor" d="M706.794,990.68c276.005,228.889 152.6,678.34 -207.234,731.261c-328.28,48.28 -598.934,-313.742 -411.416,-627.698c104.192,-174.445 379.932,-292.265 618.65,-103.562l-295.302,353.866c23.14,16.501 25.538,11.449 146.417,12.052c73.674,0.367 69.932,-91.489 3.081,-92.071c-56.633,-0.493 -72.114,3.741 -72.189,-7.761c-0.885,-134.197 9.316,-161.691 -35.467,-175.445c-19.322,-5.934 -56.425,6.553 -56.803,46.178c-0.031,3.286 -0.012,164.809 -0.018,166.144c-0.085,22.083 -3.373,29.195 14.979,50.904l295.302,-353.866Z"/>
    <path fill="currentColor" d="M1557.792,458.431c-20.926,-0.051 -235.221,-0.579 -261.573,0.12c-9.337,0.248 -7.602,-5.138 -7.602,-100.083c0,-175.594 -0.304,-176.501 1.792,-177.191c2.726,-0.897 2.615,0.962 175.377,173.723c28.225,28.172 56.45,56.345 84.676,84.517c7.294,7.292 24.862,20.295 7.33,18.913Z"/>
</svg>