<svg width="100%" height="100%" viewBox="0 0 256 242" version="1.1"
    xmlns="http://www.w3.org/2000/svg"
    xmlns:xlink="http://www.w3.org/1999/xlink"
    xml:space="preserve" xmlns:serif="http://www.serif.com/"
    style="fill-rule:evenodd;clip-rule:evenodd;"
    fill="#a7aaad">
    <g clip-path="url(#_clip1)">
        <path d="M100.187,204.171C80.031,203.999 72.885,241.314 72.885,241.314C23.465,227.442 -32.174,90.664 22.724,21.307C47.783,-10.353 201.144,-1.823 234.161,18.767C265.484,38.301 261.572,162.262 232.256,187.028C203.594,211.241 130.327,204.429 100.187,204.171ZM65.415,164.723C107.207,177.451 149,177.021 190.792,163.542C197.752,161.297 201.58,153.824 199.336,146.864C197.091,139.904 189.618,136.075 182.657,138.32C146.15,150.094 109.643,150.49 73.136,139.371C66.14,137.24 58.73,141.19 56.6,148.186C54.469,155.182 58.419,162.592 65.415,164.723Z"/>
    </g>
</svg>
