<?xml version="1.0" encoding="utf-8"?>
<svg width="100%" height="100%" viewBox="0 0 1917 1917" version="1.1" xmlns="http://www.w3.org/2000/svg" xmlns:xlink="http://www.w3.org/1999/xlink" xml:space="preserve" xmlns:serif="http://www.serif.com/" style="fill-rule:evenodd;clip-rule:evenodd;stroke-linejoin:round;stroke-miterlimit:2;fill:currentColor;">
    <g id="Capa-1" serif:id="Capa 1">
        <path d="M654.574,882.03c-146.404,-148.825 -183.821,-386.921 -141.55,-585.788c36.854,-173.396 117.521,-191.367 280,-210.763c137.113,-16.367 333.133,-14.462 466.442,23.108c219.204,50.092 222.217,654.225 -11.583,689.688c-98.804,26.679 -211.546,29.525 -313.517,31.675c-7.579,2.583 -11.188,31.854 -15.637,42.592c-57.667,119.7 -186.967,99.171 -264.154,9.487" style="fill-rule:nonzero;"/>
        <path d="M1585.542,1805.649c-88.284,146.014 -1186.789,146.214 -1264.133,-26.804c-21.797,-48.759 8.792,-170.087 16.233,-227.188c23.463,-179.917 48.646,-352.146 221.192,-448.438c152.629,-85.179 524.346,-78.096 693.987,-39.646c263.767,59.783 304.483,288.8 331.321,521.3c3.475,63.5 46.673,145.898 1.4,220.775Zm-488.888,-382.881c40.608,-45.983 11.946,-120.742 -47.367,-130.675c-30.279,-5.067 -150.729,-5.067 -181.008,0c-86.746,14.525 -87.942,142.329 0.017,156.071c55.638,1.896 186.908,20.287 228.358,-25.396Z"/>
    </g>
</svg>